<?xml version="1.0" encoding="UTF-8" standalone="no"?>
<!-- Generator: Adobe Illustrator 27.1.0, SVG Export Plug-In . SVG Version: 6.00 Build 0)  -->

<svg
   xmlns:dc="http://purl.org/dc/elements/1.1/"
   xmlns:cc="http://creativecommons.org/ns#"
   xmlns:rdf="http://www.w3.org/1999/02/22-rdf-syntax-ns#"
   xmlns:svg="http://www.w3.org/2000/svg"
   xmlns="http://www.w3.org/2000/svg"
   xmlns:sodipodi="http://sodipodi.sourceforge.net/DTD/sodipodi-0.dtd"
   xmlns:inkscape="http://www.inkscape.org/namespaces/inkscape"
   version="1.1"
   id="Ebene_1"
   x="0px"
   y="0px"
   viewBox="0 0 313.60001 124.5"
   xml:space="preserve"
   sodipodi:docname="RPTU Logo_1c-1_dunkelblau.svg"
   width="313.60001"
   height="124.5"
   inkscape:version="0.92.4 (5da689c313, 2019-01-14)"><metadata
   id="metadata36"><rdf:RDF><cc:Work
       rdf:about=""><dc:format>image/svg+xml</dc:format><dc:type
         rdf:resource="http://purl.org/dc/dcmitype/StillImage" /><dc:title></dc:title></cc:Work></rdf:RDF></metadata><defs
   id="defs34">
	
	
	

		
		
	
		
		
		
		
	</defs><sodipodi:namedview
   pagecolor="#ffffff"
   bordercolor="#666666"
   borderopacity="1"
   objecttolerance="10"
   gridtolerance="10"
   guidetolerance="10"
   inkscape:pageopacity="0"
   inkscape:pageshadow="2"
   inkscape:window-width="2880"
   inkscape:window-height="1526"
   id="namedview32"
   showgrid="false"
   fit-margin-top="0"
   fit-margin-left="0"
   fit-margin-right="0"
   fit-margin-bottom="0"
   inkscape:zoom="0.944"
   inkscape:cx="671.06008"
   inkscape:cy="87.849673"
   inkscape:window-x="8629"
   inkscape:window-y="-11"
   inkscape:window-maximized="1"
   inkscape:current-layer="Ebene_1" />
<style
   type="text/css"
   id="style2">
	.st0{fill:#060605;}
</style>

<g
   id="g869"
   transform="translate(-93,-187.9)"><path
     style="fill:#042c58;fill-opacity:1"
     inkscape:connector-curvature="0"
     id="path4"
     d="m 93,187.9 h 18 c 3.4,0 6.2,1.1 8.4,3.3 2.2,2.2 3.3,4.9 3.3,8.1 0,1.4 -0.2,2.7 -0.6,3.9 -0.4,1.2 -0.9,2.2 -1.5,2.9 -0.6,0.7 -1.2,1.4 -1.8,1.9 -0.6,0.5 -1.1,0.9 -1.5,1.1 l -0.6,0.3 7.3,13.1 h -7.8 l -6.6,-12.1 h -9.2 v 12.1 H 93 Z m 21.1,8 c -0.9,-0.9 -2,-1.3 -3.3,-1.3 h -10.4 v 9.1 h 10.4 c 1.3,0 2.4,-0.4 3.3,-1.3 0.9,-0.9 1.3,-1.9 1.3,-3.2 0,-1.3 -0.4,-2.4 -1.3,-3.3"
     class="st0" /><path
     style="fill:#042c58;fill-opacity:1"
     inkscape:connector-curvature="0"
     id="path6"
     d="m 146.7,277.4 c 3.5,0 6.4,1.1 8.7,3.3 2.3,2.2 3.5,5 3.5,8.3 0,3.3 -1.2,6 -3.5,8.3 -2.3,2.2 -5.2,3.3 -8.7,3.3 H 135.3 V 312 H 128 v -34.5 h 18.7 z m -11.4,6.7 v 9.9 h 11.1 c 1.5,0 2.7,-0.5 3.7,-1.4 1,-0.9 1.5,-2.1 1.5,-3.5 0,-1.4 -0.5,-2.6 -1.5,-3.5 -1,-1 -2.2,-1.4 -3.7,-1.4 h -11.1 z"
     class="st0" /><polygon
     class="st0"
     points="172,267.4 172,239.5 160.2,239.5 160.2,232.8 191.1,232.8 191.1,239.5 179.3,239.5 179.3,267.4 "
     id="polygon10"
     style="fill:#042c58;fill-opacity:1" /><path
     style="fill:#042c58;fill-opacity:1"
     inkscape:connector-curvature="0"
     id="path12"
     d="m 293.6,312.1 v -8 h -0.9 v 4.1 c 0,2 -1.1,3.3 -2.9,3.3 -1.7,0 -2.7,-1.1 -2.7,-2.9 v -4.5 h -0.9 v 4.6 c 0,2.2 1.3,3.6 3.4,3.6 1.5,0 2.6,-0.6 3.1,-1.8 v 0 1.6 z m -13.7,-0.6 c -1.9,0 -3.3,-1.4 -3.3,-3.4 0,-2 1.4,-3.4 3.3,-3.4 2,0 3.4,1.4 3.4,3.4 -0.1,2 -1.5,3.4 -3.4,3.4 m 4.1,0.6 v -8 h -0.8 v 1.7 0 c -0.6,-1.1 -1.9,-1.8 -3.5,-1.8 -2.4,0 -4.1,1.7 -4.1,4.2 0,2.4 1.7,4.2 4.1,4.2 1.6,0 2.8,-0.7 3.5,-1.8 v 0 1.7 h 0.8 z m -14.4,-0.6 c -1.9,0 -3.3,-1.4 -3.3,-3.4 0,-2 1.4,-3.4 3.3,-3.4 2,0 3.4,1.4 3.4,3.4 -0.1,2 -1.5,3.4 -3.4,3.4 m 4.2,0.6 V 300 h -0.9 v 5.6 0 c -0.6,-1.1 -1.8,-1.7 -3.4,-1.7 -2.4,0 -4.1,1.7 -4.1,4.2 0,2.4 1.7,4.2 4.1,4.2 1.6,0 2.8,-0.7 3.5,-1.8 v 0 1.7 h 0.8 z m -13.5,-8.2 c -1.5,0 -2.6,0.7 -3.1,1.8 v 0 -1.7 h -0.8 v 8 h 0.9 v -4 c 0,-2.1 1.1,-3.3 2.9,-3.3 1.7,0 2.7,1.1 2.7,2.9 v 4.5 h 0.9 v -4.6 c -0.1,-2.2 -1.4,-3.6 -3.5,-3.6 m -10.6,7.6 c -1.9,0 -3.3,-1.4 -3.3,-3.4 0,-2 1.4,-3.4 3.3,-3.4 2,0 3.4,1.4 3.4,3.4 0,2 -1.4,3.4 -3.4,3.4 m 4.2,0.6 v -8 h -0.8 v 1.7 0 c -0.6,-1.1 -1.9,-1.8 -3.5,-1.8 -2.4,0 -4.1,1.7 -4.1,4.2 0,2.4 1.7,4.2 4.1,4.2 1.6,0 2.8,-0.7 3.5,-1.8 v 0 1.7 h 0.8 z m -9.6,0 v -0.9 h -7 v -10.6 h -0.9 V 312 h 7.9 z"
     class="st0" /><path
     style="fill:#042c58;fill-opacity:1"
     inkscape:connector-curvature="0"
     id="path14"
     d="m 339.2,281.3 c -1.5,0 -2.6,0.7 -3.1,1.8 v 0 -1.7 h -0.8 v 8 h 0.9 v -4.1 c 0,-2.1 1.1,-3.3 2.9,-3.3 1.7,0 2.7,1.1 2.7,2.9 v 4.5 h 0.9 v -4.6 c -0.1,-2.2 -1.4,-3.5 -3.5,-3.5 m -6.6,0 c -1.3,0 -2.2,0.6 -2.6,1.7 v 0 -1.5 h -0.8 v 8 h 0.9 v -3.8 c 0,-2.3 0.8,-3.5 2.5,-3.5 0.5,0 0.9,0.1 1.3,0.4 h 0.1 v -0.9 c -0.4,-0.3 -0.9,-0.4 -1.4,-0.4 m -9.4,0.8 c 1.9,0 3.1,1.1 3.2,2.9 h -6.6 c 0.3,-1.8 1.6,-2.9 3.4,-2.9 m 4.1,3.6 v -0.5 c 0,-2.3 -1.6,-3.9 -4.1,-3.9 -2.4,0 -4.2,1.7 -4.2,4.2 0,2.6 1.8,4.2 4.6,4.2 1.3,0 2.4,-0.4 3.1,-1.1 v -0.9 h -0.1 c -0.8,0.8 -1.8,1.2 -3.1,1.2 -2.2,0 -3.6,-1.2 -3.7,-3.2 z m -9.5,2.7 v 0 c -0.4,0.3 -0.8,0.4 -1.3,0.4 -1,0 -1.6,-0.7 -1.6,-1.8 v -4.8 h 2.8 v -0.8 H 315 v -2.1 h -0.7 l -0.2,2.1 h -1.6 v 0.8 h 1.6 v 4.9 c 0,1.6 0.9,2.6 2.4,2.6 0.6,0 1,-0.1 1.4,-0.3 z m -6.7,1.1 v -8 h -0.9 v 4.1 c 0,2 -1.1,3.3 -2.9,3.3 -1.7,0 -2.7,-1.1 -2.7,-2.9 v -4.5 h -0.9 v 4.6 c 0,2.2 1.3,3.6 3.4,3.6 1.5,0 2.6,-0.6 3.1,-1.8 v 0 1.6 z m -13.8,-0.7 c -1.9,0 -3.3,-1.4 -3.3,-3.4 0,-2 1.4,-3.4 3.3,-3.4 2,0 3.4,1.4 3.4,3.4 0,2.1 -1.4,3.4 -3.4,3.4 m 4.2,0.7 v -8 h -0.8 v 1.7 0 c -0.6,-1.1 -1.9,-1.8 -3.5,-1.8 -2.4,0 -4.1,1.7 -4.1,4.2 0,2.4 1.7,4.2 4.1,4.2 1.6,0 2.8,-0.7 3.5,-1.8 v 0 1.7 h 0.8 z m -11.1,0 h 0.9 v -12.1 h -0.9 z m -4.9,-8.2 c -1.8,0 -3,1 -3,2.4 0,1.4 0.7,2 2.9,2.1 1.8,0.1 2.3,0.5 2.3,1.4 0,1 -0.9,1.6 -2.2,1.6 -1.3,0 -2.4,-0.4 -3,-1.1 h -0.1 v 1 c 0.7,0.6 1.7,0.9 3.1,0.9 1.9,0 3,-0.9 3,-2.4 0,-1.5 -0.8,-2.2 -3,-2.3 -1.7,-0.1 -2.2,-0.4 -2.2,-1.3 0,-0.9 0.9,-1.6 2.1,-1.6 1.2,0 2,0.3 2.6,0.9 h 0.1 v -1 c -0.5,-0.4 -1.5,-0.6 -2.6,-0.6 m -5.1,0 c -1.3,0 -2.2,0.6 -2.6,1.7 v 0 -1.5 H 277 v 8 h 0.9 v -3.8 c 0,-2.3 0.8,-3.5 2.5,-3.5 0.5,0 0.9,0.1 1.3,0.4 h 0.1 v -0.9 c -0.5,-0.3 -0.9,-0.4 -1.4,-0.4 m -9.4,0.8 c 1.9,0 3.1,1.1 3.2,2.9 h -6.6 c 0.3,-1.8 1.6,-2.9 3.4,-2.9 m 4,3.6 v -0.5 c 0,-2.3 -1.6,-3.9 -4.1,-3.9 -2.4,0 -4.2,1.7 -4.2,4.2 0,2.6 1.8,4.2 4.6,4.2 1.3,0 2.4,-0.4 3.1,-1.1 v -0.9 h -0.1 c -0.8,0.8 -1.8,1.2 -3.1,1.2 -2.2,0 -3.6,-1.2 -3.7,-3.2 z m -12.6,-4.4 c -1.8,0 -3,1 -3,2.4 0,1.4 0.7,2 2.9,2.1 1.8,0.1 2.3,0.5 2.3,1.4 0,1 -0.9,1.6 -2.2,1.6 -1.3,0 -2.4,-0.4 -3,-1.1 h -0.1 v 1 c 0.7,0.6 1.7,0.9 3.1,0.9 1.9,0 3,-0.9 3,-2.4 0,-1.5 -0.8,-2.2 -3,-2.3 -1.7,-0.1 -2.2,-0.4 -2.2,-1.3 0,-0.9 0.9,-1.6 2.1,-1.6 1.2,0 2,0.3 2.6,0.9 h 0.1 v -1 c -0.5,-0.4 -1.5,-0.6 -2.6,-0.6 m -5.7,8.2 h 0.9 v -8 h -0.9 z m 0.4,-11.3 c -0.4,0 -0.6,0.3 -0.6,0.7 0,0.3 0.3,0.6 0.6,0.6 0.4,0 0.6,-0.3 0.6,-0.6 0,-0.4 -0.2,-0.7 -0.6,-0.7 m -7.1,10.6 c -1.9,0 -3.3,-1.4 -3.3,-3.4 0,-2 1.4,-3.4 3.3,-3.4 2,0 3.4,1.4 3.4,3.4 0,2.1 -1.4,3.4 -3.4,3.4 m 4.2,0.7 v -8 h -0.8 v 1.7 0 c -0.6,-1.1 -1.9,-1.8 -3.5,-1.8 -2.4,0 -4.1,1.7 -4.1,4.2 0,2.4 1.7,4.2 4.1,4.2 1.6,0 2.8,-0.7 3.5,-1.8 v 0 1.7 h 0.8 z m -16.8,0 V 284 l 6.4,5.5 h 1.4 l -6.8,-5.8 6.6,-5.7 h -1.4 l -6.3,5.4 V 278 h -0.9 v 11.4 h 1 z"
     class="st0" /><path
     style="fill:#042c58;fill-opacity:1"
     inkscape:connector-curvature="0"
     id="path16"
     d="m 406.6,265.6 v 0 c -0.4,0.3 -0.8,0.5 -1.3,0.5 -0.9,0 -1.4,-0.6 -1.4,-1.5 v -4.1 h 2.6 v -1.3 h -2.6 V 257 h -1.2 l -0.2,2.2 H 401 v 1.3 h 1.5 v 4.2 c 0,1.8 0.9,2.8 2.6,2.8 0.6,0 1.1,-0.1 1.5,-0.3 z m -9.5,-9.9 c -0.6,0 -0.9,0.4 -0.9,0.9 0,0.5 0.4,0.9 0.9,0.9 0.5,0 0.9,-0.4 0.9,-0.9 0,-0.6 -0.4,-0.9 -0.9,-0.9 m -3.4,0 c -0.5,0 -0.9,0.4 -0.9,0.9 0,0.5 0.4,0.9 0.9,0.9 0.5,0 0.9,-0.4 0.9,-0.9 0.1,-0.6 -0.3,-0.9 -0.9,-0.9 m 1.8,10.3 c -1.7,0 -2.8,-1.2 -2.8,-2.9 0,-1.7 1.1,-2.9 2.8,-2.9 1.6,0 2.8,1.2 2.8,2.9 -0.1,1.8 -1.2,2.9 -2.8,2.9 m 4.2,1.2 v -8.1 h -1.2 l -0.1,1.3 v 0 c -0.6,-0.9 -1.7,-1.5 -3.1,-1.5 -2.3,0 -4,1.8 -4,4.2 0,2.4 1.7,4.2 4,4.2 1.4,0 2.5,-0.6 3.1,-1.4 v 0 l 0.1,1.3 z m -9.6,-1.6 v 0 c -0.4,0.3 -0.8,0.5 -1.3,0.5 -0.9,0 -1.4,-0.6 -1.4,-1.5 v -4.1 h 2.6 v -1.3 h -2.6 V 257 h -1.2 l -0.2,2.2 h -1.5 v 1.3 h 1.5 v 4.2 c 0,1.8 0.9,2.8 2.6,2.8 0.6,0 1.1,-0.1 1.5,-0.3 z m -8.4,1.6 h 1.5 v -8.1 h -1.5 z m 0.7,-11.6 c -0.6,0 -1,0.4 -1,1 0,0.6 0.4,1 1,1 0.6,0 1,-0.4 1,-1 0,-0.6 -0.4,-1 -1,-1 m -5.4,3.3 c -1.9,0 -3.1,1 -3.1,2.6 0,1.5 0.8,2.1 2.9,2.3 1.4,0.1 1.9,0.4 1.9,1.1 0,0.7 -0.7,1.2 -1.8,1.2 -1.3,0 -2.3,-0.4 -2.9,-1.1 h -0.1 v 1.6 c 0.7,0.6 1.7,0.8 3.1,0.8 2,0 3.2,-1 3.2,-2.5 0,-1.6 -0.8,-2.3 -3,-2.4 -1.3,-0.1 -1.8,-0.3 -1.8,-0.9 0,-0.7 0.7,-1.2 1.7,-1.2 1.1,0 2,0.3 2.5,0.9 h 0.1 v -1.6 c -0.7,-0.5 -1.7,-0.8 -2.7,-0.8 m -5.3,0 c -1.2,0 -2.1,0.5 -2.5,1.5 v 0 -1.3 H 368 v 8.1 h 1.5 v -3.7 c 0,-2.1 0.7,-3.2 2.3,-3.2 0.5,0 0.9,0.1 1.3,0.4 h 0.1 v -1.5 c -0.5,-0.1 -1,-0.3 -1.5,-0.3 m -9.6,1.4 c 1.5,0 2.5,0.8 2.7,2.2 h -5.4 c 0.2,-1.4 1.3,-2.2 2.7,-2.2 m 4,3.3 v -0.8 c 0,-2.3 -1.6,-3.9 -4.1,-3.9 -2.5,0 -4.2,1.7 -4.2,4.2 0,2.5 1.8,4.2 4.7,4.2 1.3,0 2.4,-0.3 3.1,-0.9 v -1.5 h -0.1 c -0.8,0.7 -1.8,1.1 -3,1.1 -1.8,0 -3,-0.9 -3.2,-2.4 z m -12.1,3.6 3.4,-8.1 h -1.5 l -2.6,6.5 v 0 l -2.6,-6.5 h -1.6 l 3.4,8.1 z m -7.6,0 h 1.5 v -8.1 h -1.5 z m 0.7,-11.6 c -0.6,0 -1,0.4 -1,1 0,0.6 0.4,1 1,1 0.6,0 1,-0.4 1,-1 0,-0.6 -0.4,-1 -1,-1 m -6.1,3.3 c -1.4,0 -2.3,0.5 -2.9,1.4 v 0 -1.3 h -1.2 v 8.1 h 1.5 V 263 c 0,-1.7 0.9,-2.7 2.4,-2.7 1.4,0 2.2,0.9 2.2,2.4 v 4.5 h 1.5 v -4.7 c -0.2,-2.2 -1.4,-3.6 -3.5,-3.6 m -6.4,-3.2 H 333 v 6.5 c 0,2.4 -1.2,3.6 -3.3,3.6 -2.1,0 -3.3,-1.3 -3.3,-3.6 v -6.5 h -1.7 v 6.6 c 0,3.3 1.7,5 4.9,5 3.2,0 4.9,-1.7 4.9,-5 v -6.6 z m -19.3,4.6 c 1.5,0 2.5,0.8 2.7,2.2 h -5.4 c 0.3,-1.4 1.4,-2.2 2.7,-2.2 m 4.1,3.3 v -0.8 c 0,-2.3 -1.6,-3.9 -4.1,-3.9 -2.5,0 -4.2,1.7 -4.2,4.2 0,2.5 1.8,4.2 4.7,4.2 1.3,0 2.4,-0.3 3.1,-0.9 v -1.5 h -0.1 c -0.8,0.7 -1.8,1.1 -3,1.1 -1.8,0 -3,-0.9 -3.2,-2.4 z m -13.1,-4.7 c -1.2,0 -2.1,0.4 -2.7,1.2 v 0 -5 h -1.5 v 12.1 h 1.5 V 263 c 0,-1.7 0.9,-2.7 2.4,-2.7 1.4,0 2.2,0.9 2.2,2.4 v 4.5 h 1.5 v -4.7 c -0.1,-2.2 -1.4,-3.6 -3.4,-3.6 m -8.8,0 c -2.6,0 -4.3,1.7 -4.3,4.2 0,2.4 1.7,4.2 4.3,4.2 1.1,0 2,-0.3 2.6,-0.8 V 265 H 300 c -0.6,0.7 -1.4,1.1 -2.4,1.1 -1.8,0 -3,-1.2 -3,-2.9 0,-1.7 1.2,-2.9 3,-2.9 1,0 1.8,0.3 2.4,1.1 h 0.1 v -1.6 c -0.6,-0.6 -1.5,-0.9 -2.6,-0.9 m -8.6,0 c -1.9,0 -3.1,1 -3.1,2.6 0,1.5 0.8,2.1 2.9,2.3 1.4,0.1 1.9,0.4 1.9,1.1 0,0.7 -0.7,1.2 -1.8,1.2 -1.3,0 -2.3,-0.4 -2.9,-1.1 h -0.1 v 1.6 c 0.7,0.6 1.7,0.8 3.1,0.8 2,0 3.2,-1 3.2,-2.5 0,-1.6 -0.8,-2.3 -3,-2.4 -1.3,-0.1 -1.8,-0.3 -1.8,-0.9 0,-0.7 0.7,-1.2 1.7,-1.2 1.1,0 2,0.3 2.5,0.9 h 0.1 v -1.6 c -0.6,-0.5 -1.6,-0.8 -2.7,-0.8 m -6.4,8.3 h 1.5 v -8.1 h -1.5 z m 0.8,-11.6 c -0.6,0 -1,0.4 -1,1 0,0.6 0.4,1 1,1 0.6,0 1,-0.4 1,-1 -0.1,-0.6 -0.5,-1 -1,-1 m -6.1,3.3 c -1.4,0 -2.3,0.5 -2.9,1.4 v 0 -1.3 H 273 v 8.1 h 1.5 V 263 c 0,-1.7 0.9,-2.7 2.4,-2.7 1.4,0 2.2,0.9 2.2,2.4 v 4.5 h 1.5 v -4.7 c -0.1,-2.2 -1.4,-3.6 -3.4,-3.6 m -9.6,0 c -1.2,0 -2.1,0.4 -2.7,1.2 v 0 -5 h -1.5 v 12.1 h 1.5 V 263 c 0,-1.7 0.9,-2.7 2.4,-2.7 1.4,0 2.2,0.9 2.2,2.4 v 4.5 h 1.5 v -4.7 c -0.1,-2.2 -1.3,-3.6 -3.4,-3.6 m -8.8,0 c -2.6,0 -4.3,1.7 -4.3,4.2 0,2.4 1.7,4.2 4.3,4.2 1.1,0 2,-0.3 2.6,-0.8 V 265 h -0.1 c -0.6,0.7 -1.4,1.1 -2.4,1.1 -1.8,0 -3,-1.2 -3,-2.9 0,-1.7 1.2,-2.9 3,-2.9 1,0 1.8,0.3 2.4,1.1 h 0.1 v -1.6 c -0.5,-0.6 -1.4,-0.9 -2.6,-0.9 m -9.6,1.4 c 1.5,0 2.5,0.8 2.7,2.2 h -5.4 c 0.3,-1.4 1.4,-2.2 2.7,-2.2 m 4.1,3.3 v -0.8 c 0,-2.3 -1.6,-3.9 -4.1,-3.9 -2.5,0 -4.2,1.7 -4.2,4.2 0,2.5 1.8,4.2 4.7,4.2 1.3,0 2.4,-0.3 3.1,-0.9 v -1.5 h -0.1 c -0.8,0.7 -1.8,1.1 -3,1.1 -1.8,0 -3,-0.9 -3.2,-2.4 z m -11.4,-6.4 h 3.7 v -1.5 h -9.2 v 1.5 h 3.8 v 10 h 1.7 z"
     class="st0" /><path
     style="fill:#042c58;fill-opacity:1"
     inkscape:connector-curvature="0"
     id="path18"
     d="m 391.7,237.3 c 1.5,0 2.5,0.8 2.7,2.2 H 389 c 0.2,-1.3 1.3,-2.2 2.7,-2.2 m 4.1,3.4 v -0.8 c 0,-2.3 -1.6,-3.9 -4.1,-3.9 -2.5,0 -4.2,1.7 -4.2,4.2 0,2.5 1.8,4.2 4.7,4.2 1.3,0 2.4,-0.3 3.1,-0.9 V 242 h -0.1 c -0.8,0.7 -1.8,1.1 -3,1.1 -1.8,0 -3,-0.9 -3.2,-2.4 z M 382.6,236 c -1.2,0 -2.1,0.4 -2.7,1.2 v 0 -5 h -1.5 v 12.1 h 1.5 V 240 c 0,-1.7 0.9,-2.7 2.4,-2.7 1.4,0 2.2,0.9 2.2,2.4 v 4.5 h 1.5 v -4.7 c -0.1,-2.2 -1.3,-3.5 -3.4,-3.5 m -8.7,0 c -2.6,0 -4.3,1.7 -4.3,4.2 0,2.4 1.7,4.2 4.3,4.2 1.1,0 2,-0.3 2.6,-0.8 V 242 h -0.1 c -0.6,0.7 -1.4,1.1 -2.4,1.1 -1.8,0 -3,-1.2 -3,-2.9 0,-1.7 1.2,-2.9 3,-2.9 1,0 1.8,0.3 2.4,1.1 h 0.1 v -1.6 c -0.6,-0.6 -1.5,-0.8 -2.6,-0.8 m -8.6,0 c -1.9,0 -3.1,1 -3.1,2.6 0,1.5 0.8,2.1 2.9,2.3 1.4,0.1 1.9,0.4 1.9,1.1 0,0.7 -0.7,1.2 -1.8,1.2 -1.3,0 -2.3,-0.4 -2.9,-1.1 h -0.1 v 1.6 c 0.7,0.6 1.7,0.8 3.1,0.8 2,0 3.2,-1 3.2,-2.5 0,-1.6 -0.8,-2.3 -3,-2.4 -1.3,-0.1 -1.8,-0.3 -1.8,-0.9 0,-0.7 0.7,-1.2 1.7,-1.2 1.1,0 2,0.3 2.5,0.9 h 0.1 v -1.6 c -0.7,-0.6 -1.6,-0.8 -2.7,-0.8 m -6.4,8.2 h 1.5 v -8.1 h -1.5 z m 0.7,-11.5 c -0.6,0 -1,0.4 -1,1 0,0.6 0.4,1 1,1 0.6,0 1,-0.4 1,-1 0,-0.6 -0.4,-1 -1,-1 m -9.5,11.5 h 7 v -1.3 h -5 l 4.9,-5.6 v -1.2 h -6.7 v 1.3 h 4.7 l -5,5.6 z m -3.4,0 h 1.5 v -12.1 h -1.5 z m -4.8,-11.5 c -0.5,0 -0.9,0.4 -0.9,0.9 0,0.5 0.4,0.9 0.9,0.9 0.5,0 0.9,-0.4 0.9,-0.9 0,-0.5 -0.3,-0.9 -0.9,-0.9 m -3.4,0 c -0.5,0 -0.9,0.4 -0.9,0.9 0,0.5 0.4,0.9 0.9,0.9 0.6,0 0.9,-0.4 0.9,-0.9 0.1,-0.5 -0.3,-0.9 -0.9,-0.9 m 1.8,10.4 c -1.7,0 -2.8,-1.2 -2.8,-2.9 0,-1.7 1.1,-2.9 2.8,-2.9 1.6,0 2.8,1.2 2.8,2.9 0,1.7 -1.2,2.9 -2.8,2.9 m 4.2,1.1 v -8.1 h -1.2 l -0.1,1.3 v 0 c -0.6,-0.9 -1.7,-1.5 -3.1,-1.5 -2.3,0 -4,1.8 -4,4.2 0,2.4 1.7,4.2 4,4.2 1.4,0 2.5,-0.6 3.1,-1.4 v 0 l 0.1,1.3 z M 334.2,232 c -1.7,0 -2.7,1 -2.7,2.9 v 1.3 H 330 v 1.3 h 1.5 v 6.8 h 1.5 v -6.8 h 2.6 v -1.3 H 333 v -1.3 c 0,-1 0.5,-1.6 1.4,-1.6 0.5,0 1,0.1 1.3,0.4 h 0.1 v -1.4 c -0.3,-0.2 -0.9,-0.3 -1.6,-0.3 m -12.4,6.5 v -4.3 h 3.2 c 1.7,0 2.5,0.7 2.5,2.1 0,1.4 -0.8,2.2 -2.5,2.2 z m -1.7,-5.7 v 11.4 h 1.6 V 240 h 3.3 c 2.7,0 4.1,-1.2 4.1,-3.6 0,-2.4 -1.4,-3.6 -4.1,-3.6 z m -6.9,7.5 h 4.8 v -1.5 h -4.8 z m -6.1,2.8 c -1.7,0 -2.8,-1.2 -2.8,-2.9 0,-1.7 1.1,-2.9 2.8,-2.9 1.6,0 2.8,1.2 2.8,2.9 0,1.7 -1.2,2.9 -2.8,2.9 m 4.2,1.1 v -12.1 h -1.5 v 5.1 0 c -0.6,-0.8 -1.6,-1.2 -2.9,-1.2 -2.3,0 -4,1.8 -4,4.2 0,2.4 1.7,4.2 4,4.2 1.4,0 2.5,-0.6 3.1,-1.4 v 0 l 0.1,1.3 h 1.2 z M 298,236 c -1.4,0 -2.3,0.5 -2.9,1.4 v 0 -1.3 h -1.2 v 8.1 h 1.5 V 240 c 0,-1.7 0.9,-2.7 2.4,-2.7 1.4,0 2.2,0.9 2.2,2.4 v 4.5 h 1.5 v -4.7 C 301.3,237.3 300,236 298,236 m -10.7,7.1 c -1.7,0 -2.8,-1.2 -2.8,-2.9 0,-1.7 1.1,-2.9 2.8,-2.9 1.6,0 2.8,1.2 2.8,2.9 0,1.7 -1.2,2.9 -2.8,2.9 m 4.2,1.1 v -8.1 h -1.2 l -0.1,1.3 v 0 c -0.6,-0.9 -1.7,-1.5 -3.1,-1.5 -2.3,0 -4,1.8 -4,4.2 0,2.4 1.7,4.2 4,4.2 1.4,0 2.5,-0.6 3.1,-1.4 v 0 l 0.1,1.3 z m -11.7,0 h 1.5 v -12.1 h -1.5 z m -5.4,-8.2 c -1.4,0 -2.3,0.5 -2.9,1.4 v 0 -1.3 h -1.2 v 8.1 h 1.5 V 240 c 0,-1.7 0.9,-2.7 2.4,-2.7 1.4,0 2.2,0.9 2.2,2.4 v 4.5 h 1.5 v -4.7 c -0.2,-2.2 -1.4,-3.5 -3.5,-3.5 m -7.9,8.2 h 1.5 v -8.1 h -1.5 z m 0.8,-11.5 c -0.6,0 -1,0.4 -1,1 0,0.6 0.4,1 1,1 0.6,0 1,-0.4 1,-1 0,-0.6 -0.5,-1 -1,-1 m -6.6,4.6 c 1.5,0 2.5,0.8 2.7,2.2 H 258 c 0.3,-1.3 1.4,-2.2 2.7,-2.2 m 4.1,3.4 v -0.8 c 0,-2.3 -1.6,-3.9 -4.1,-3.9 -2.5,0 -4.2,1.7 -4.2,4.2 0,2.5 1.8,4.2 4.7,4.2 1.3,0 2.4,-0.3 3.1,-0.9 V 242 h -0.1 c -0.8,0.7 -1.8,1.1 -3,1.1 -1.8,0 -3,-0.9 -3.2,-2.4 z M 251.7,236 c -1.2,0 -2.1,0.4 -2.7,1.2 v 0 -5 h -1.5 v 12.1 H 249 V 240 c 0,-1.7 0.9,-2.7 2.4,-2.7 1.4,0 2.2,0.9 2.2,2.4 v 4.5 h 1.5 v -4.7 c -0.1,-2.2 -1.4,-3.5 -3.4,-3.5 m -13.7,2.4 v -4.2 h 3.3 c 1.7,0 2.5,0.7 2.5,2.1 0,1.4 -0.8,2.1 -2.5,2.1 z m 0,5.8 v -4.4 h 3.1 l 2.8,4.4 h 2 l -3,-4.5 c 1.8,-0.4 2.6,-1.5 2.6,-3.4 0,-2.3 -1.4,-3.5 -4.1,-3.5 h -5 v 11.4 z"
     class="st0" /><g
     style="fill:#042c58;fill-opacity:1"
     id="Ebene_1_Kopie_00000109002030260505761730000001543674881803421864_">
	<g
   style="fill:#042c58;fill-opacity:1"
   id="g28">
		<path
   style="fill:#042c58;fill-opacity:1"
   id="path24"
   d="m 226,253.1 v -20.3 h -7.3 v 20.3 c 0,2.3 -0.7,4.2 -2.2,5.8 -0.7,0.7 -1.5,1.3 -2.3,1.7 -0.2,0.1 -0.2,0.1 -0.4,0.2 -1.1,0.6 -1.9,1.7 -1.9,3.1 0,1.9 1.5,3.4 3.4,3.4 0.3,0 0.9,-0.1 1.3,-0.3 1.9,-0.7 3.7,-1.8 5.2,-3.3 2.8,-3 4.2,-6.5 4.2,-10.6"
   inkscape:connector-curvature="0" />
		<path
   style="fill:#042c58;fill-opacity:1"
   id="path26"
   d="m 195.1,253.1 c 0,4.2 1.4,7.7 4.2,10.6 1.5,1.5 3.3,2.6 5.2,3.3 0.4,0.2 1,0.3 1.3,0.3 1.9,0 3.4,-1.5 3.4,-3.4 0,-1.4 -0.8,-2.5 -1.9,-3.1 -0.2,-0.1 -0.2,-0.1 -0.4,-0.2 -0.8,-0.4 -1.6,-1 -2.3,-1.7 -1.5,-1.6 -2.2,-3.5 -2.2,-5.8 v -20.3 h -7.3 v 20.3"
   inkscape:connector-curvature="0" />
	</g>
</g></g>
</svg>